<?xml version="1.0" standalone="no"?>
<!DOCTYPE svg PUBLIC "-//W3C//DTD SVG 20010904//EN"
 "http://www.w3.org/TR/2001/REC-SVG-20010904/DTD/svg10.dtd">
<svg version="1.0" xmlns="http://www.w3.org/2000/svg"
 width="1024.000000pt" height="1024.000000pt" viewBox="0 0 1024.000000 1024.000000"
 preserveAspectRatio="xMidYMid meet">

<g transform="translate(0.000000,1024.000000) scale(0.100000,-0.100000)"
fill="#000000" stroke="none">
<path d="M3011 9116 c-8 -10 -11 -61 -11 -169 1 -99 -2 -162 -10 -176 -16 -31
-5 -41 51 -41 52 0 72 17 50 43 -6 8 -12 80 -13 183 l-3 169 -26 3 c-14 2 -31
-4 -38 -12z"/>
<path d="M5244 9090 c-18 -4 -47 -16 -65 -27 -32 -18 -43 -19 -189 -10 -179
12 -376 -1 -535 -34 -194 -40 -525 -163 -704 -262 -106 -58 -207 -145 -228
-195 -12 -30 -32 -323 -33 -483 l0 -57 -47 3 -48 3 -5 49 c-5 48 -5 48 -60 70
-47 19 -52 24 -32 29 22 6 22 8 22 195 l0 189 -35 39 c-113 125 -362 126 -480
1 -30 -31 -30 -32 -33 -168 -2 -75 -1 -165 3 -199 6 -54 9 -62 31 -67 34 -9
30 -23 -10 -30 -19 -4 -46 -16 -60 -27 -25 -20 -26 -25 -26 -121 0 -107 -7
-120 -21 -41 -5 26 -13 51 -17 55 -11 11 -135 -22 -150 -40 -8 -11 -12 -58
-12 -153 0 -147 4 -169 27 -169 13 0 15 -25 9 -192 -3 -106 -5 -364 -6 -573
l0 -381 -60 -12 c-107 -22 -218 -84 -317 -175 -48 -44 -56 -40 -18 9 14 18 25
36 25 39 0 3 14 18 30 32 34 28 39 47 10 38 -32 -10 -23 3 14 20 28 14 86 80
86 100 0 2 -12 0 -26 -5 -47 -18 -49 -10 -4 16 29 16 56 42 73 70 l27 44 -33
0 -32 0 31 16 c36 17 59 61 70 129 l7 48 -29 -7 c-75 -19 -178 -80 -250 -149
-88 -83 -141 -181 -169 -310 l-17 -79 -23 55 c-123 303 -345 383 -597 214
l-62 -41 40 -18 c26 -12 51 -16 74 -12 31 5 33 4 17 -8 -18 -13 -16 -15 23
-33 44 -20 89 -22 121 -4 13 6 19 6 19 0 0 -6 -12 -17 -27 -24 l-27 -14 50
-23 c27 -13 72 -26 99 -30 40 -6 46 -9 28 -15 -34 -11 -28 -20 25 -38 26 -9
41 -16 35 -16 -18 -1 -16 -21 2 -21 15 0 89 -60 82 -66 -2 -2 -27 7 -55 21
-30 15 -96 32 -154 41 -231 37 -468 -35 -657 -200 -35 -30 -70 -64 -77 -74
-13 -18 -10 -20 37 -26 36 -5 59 -3 81 9 41 20 45 19 23 -5 -18 -20 -17 -20
54 -20 l72 0 55 51 c60 57 70 54 24 -9 l-29 -41 37 6 c53 8 91 27 142 70 l44
38 -23 -38 -23 -38 28 7 c16 4 39 11 52 15 13 5 32 9 44 9 11 0 37 13 57 28
38 30 80 55 49 29 -27 -22 -22 -26 20 -16 20 5 60 8 87 8 49 -1 48 -1 -40 -24
-125 -32 -193 -59 -266 -107 -155 -99 -270 -265 -332 -475 l-16 -52 25 9 c51
20 82 40 108 70 29 35 31 34 16 -4 -5 -14 -7 -26 -4 -26 2 0 31 13 63 30 64
32 94 69 108 135 l8 40 5 -50 5 -50 42 42 c26 26 47 58 54 85 17 60 29 69 29
23 0 -37 1 -38 14 -19 8 11 33 33 55 48 26 19 49 47 65 80 18 37 25 45 25 28
1 -22 1 -22 31 5 17 15 49 38 73 52 42 24 42 24 -23 -45 -107 -115 -190 -297
-190 -419 l0 -47 63 57 62 57 3 -47 c2 -36 -2 -53 -16 -69 -27 -29 -34 -57
-41 -161 -5 -73 -9 -89 -21 -86 -8 2 -27 3 -41 2 -25 -1 -26 1 -32 75 -7 95
-17 108 -77 100 -95 -13 -193 -39 -211 -57 -14 -14 -19 -34 -19 -78 0 -63 -19
-96 -42 -73 -18 18 -69 14 -92 -7 -12 -10 -52 -29 -91 -41 -89 -29 -111 -49
-124 -114 -12 -60 -36 -371 -51 -676 -16 -328 -14 -315 -58 -328 -51 -16 -102
-49 -102 -66 0 -19 60 -76 92 -88 22 -8 28 -16 28 -39 0 -23 5 -29 21 -29 11
0 28 4 37 9 22 12 74 -9 78 -31 2 -14 -3 -14 -35 -6 -20 6 -67 8 -105 5 -59
-4 -86 -13 -183 -62 -62 -31 -113 -63 -113 -71 0 -25 48 -45 159 -65 61 -10
163 -32 228 -49 130 -32 287 -56 435 -65 74 -5 98 -10 103 -22 14 -38 16 -169
5 -298 -7 -77 -15 -192 -19 -255 l-6 -115 -129 -225 c-71 -124 -150 -261 -177
-305 -26 -44 -62 -123 -80 -175 -29 -88 -31 -101 -27 -205 3 -79 11 -128 27
-174 48 -139 152 -256 285 -321 153 -76 -177 -70 3796 -70 3952 0 3645 -5
3787 65 270 133 390 458 276 745 -22 55 -234 432 -403 715 -77 130 -440 760
-855 1485 -131 228 -304 530 -385 670 -81 140 -159 279 -174 308 l-27 54 25
25 c16 15 28 42 32 69 l6 45 33 -48 c17 -26 58 -95 90 -153 210 -381 445 -783
453 -775 3 2 -1 11 -7 19 -25 30 11 27 67 -6 132 -78 261 -133 632 -269 211
-77 422 -174 576 -264 84 -50 100 -56 126 -49 l30 9 -22 28 c-34 43 -394 289
-519 353 l-50 26 67 33 c37 18 101 57 142 87 221 159 396 246 579 289 96 22
156 53 195 100 34 41 27 48 -16 16 -47 -36 -76 -45 -212 -68 -246 -40 -350
-81 -583 -227 -90 -57 -164 -96 -205 -107 -86 -26 -209 -24 -324 5 -136 34
-424 140 -445 164 -21 24 -279 423 -453 700 l-119 188 -4 139 c-2 85 0 139 6
139 28 0 158 -33 241 -60 201 -68 384 -175 690 -405 152 -115 367 -259 470
-315 121 -66 300 -142 411 -174 138 -40 173 -40 59 -1 -278 96 -538 250 -925
550 -93 72 -190 146 -215 164 l-45 33 70 -6 c39 -3 111 -8 160 -11 227 -15
486 -66 638 -126 59 -23 151 -73 235 -127 75 -48 209 -132 298 -186 89 -54
179 -115 200 -135 112 -103 114 -101 21 22 -62 82 -127 139 -224 196 -32 19
-157 97 -279 172 -121 76 -249 149 -285 162 -74 28 -218 62 -301 72 -32 3 -60
11 -64 16 -15 26 -15 118 1 174 21 73 37 94 70 88 69 -14 154 59 176 150 17
74 22 82 79 106 47 20 66 47 38 55 -7 2 -35 11 -62 19 -66 20 -78 13 -122 -76
-40 -78 -48 -87 -81 -87 -29 0 -53 37 -56 86 -4 56 -50 124 -84 124 -14 0 -35
8 -45 17 -23 21 -54 6 -51 -24 1 -13 -7 -24 -21 -31 -14 -6 -31 -29 -41 -55
-9 -25 -28 -50 -43 -59 -25 -15 -29 -15 -51 3 -29 24 -41 17 -41 -26 0 -35
-13 -45 -56 -45 -36 0 -66 39 -92 118 -25 77 -50 106 -131 146 -80 41 -86 41
-129 1 -25 -22 -50 -35 -68 -36 -39 0 -112 -31 -141 -59 -22 -21 -24 -29 -21
-105 3 -70 0 -86 -16 -104 -17 -19 -17 -21 -2 -21 24 0 36 41 36 119 0 46 5
72 14 80 11 9 14 0 20 -50 10 -99 7 -129 -14 -159 -19 -27 -20 -30 -3 -93 10
-37 15 -68 13 -70 -4 -3 -202 40 -268 59 -10 3 -12 32 -8 136 5 112 9 135 25
152 11 12 24 34 30 49 20 51 13 78 -27 116 -21 20 -50 57 -65 82 -28 49 -89
109 -111 109 -8 0 -24 34 -41 88 -54 176 -170 324 -313 400 -63 34 -71 47 -51
81 20 31 3 71 -37 87 -25 11 -34 20 -30 30 3 9 8 32 11 52 15 96 -107 173
-195 124 l-35 -20 -68 36 c-37 19 -70 32 -73 29 -11 -11 26 -102 69 -168 l44
-66 -25 -28 c-21 -24 -23 -36 -19 -75 l6 -46 -44 -20 -45 -20 -117 205 c-64
113 -121 214 -127 223 -9 15 -2 26 36 65 55 57 87 122 88 179 1 145 -326 1069
-413 1170 -48 55 -165 115 -302 155 -76 22 -119 40 -140 59 -52 48 -119 71
-171 60z m-624 -147 c-13 -3 -29 -11 -35 -19 -16 -23 -81 -29 -100 -11 -14 14
-11 16 32 22 27 4 53 8 58 10 6 2 24 3 40 3 26 -1 27 -1 5 -5z m-533 -140
c-11 -10 -190 -84 -194 -79 -2 2 30 18 72 35 131 55 133 56 122 44z m-1080
-211 c-27 -40 -34 -46 -46 -34 -22 22 -45 9 -59 -33 -12 -34 -11 -58 4 -165
21 -153 32 -189 33 -103 1 34 -3 65 -9 68 -16 10 -11 62 7 81 17 16 18 14 30
-42 15 -75 16 -87 2 -78 -7 4 -10 1 -7 -7 3 -8 10 -13 16 -12 6 2 14 -7 17
-18 4 -11 21 -36 37 -55 25 -28 31 -44 30 -76 -1 -22 -4 -44 -8 -49 -3 -5 -29
-9 -59 -9 -29 0 -89 -7 -132 -15 -102 -20 -105 -19 -101 8 2 14 17 29 41 42
l39 20 -7 125 c-12 224 -10 283 9 313 21 31 128 86 168 87 l26 0 -31 -48z
m1033 -122 c0 -5 -5 -10 -11 -10 -5 0 -7 5 -4 10 3 6 8 10 11 10 2 0 4 -4 4
-10z m-17 -37 c-7 -2 -21 -2 -30 0 -10 3 -4 5 12 5 17 0 24 -2 18 -5z m-1215
-545 l-3 -83 -86 -45 c-47 -25 -96 -53 -109 -62 -13 -9 -27 -15 -32 -12 -4 3
-8 58 -8 124 0 125 2 130 51 130 15 0 19 -7 19 -36 l0 -36 53 7 c28 4 54 9 55
10 2 2 6 22 9 44 5 35 9 41 30 41 23 0 24 -1 21 -82z m376 -480 c4 -172 11
-432 16 -578 5 -146 10 -360 10 -477 l0 -211 -35 -12 c-25 -8 -39 -21 -49 -45
-12 -28 -23 -37 -63 -48 l-48 -15 -10 35 -9 36 -73 -6 c-47 -3 -78 -11 -89
-21 -8 -9 -21 -16 -29 -16 -7 0 -23 -25 -35 -55 -12 -30 -24 -55 -27 -55 -2 0
-27 17 -56 39 -29 21 -62 44 -75 50 -22 12 -23 18 -21 101 2 83 0 91 -22 110
l-24 20 47 -20 c43 -19 81 -20 111 -3 5 3 -6 19 -25 35 l-33 30 36 -21 c20
-12 45 -21 56 -21 29 0 114 31 108 39 -2 5 21 14 53 21 l57 12 -34 29 c-73 60
-234 129 -303 129 l-28 0 0 333 c0 182 3 437 7 564 l6 232 46 15 c39 12 174
37 401 75 30 5 71 9 91 10 l36 1 7 -312z m2496 -249 c28 -21 30 -22 72 -6 24
10 47 17 50 17 4 0 18 -19 31 -42 14 -24 84 -147 156 -274 l131 -232 -15 -58
c-8 -33 -22 -63 -31 -69 -46 -28 -73 -60 -104 -119 -18 -36 -41 -68 -51 -71
-22 -7 -49 -54 -49 -85 0 -29 26 -76 52 -95 l23 -15 5 -384 c6 -435 -2 -397
94 -458 l51 -33 -1235 -5 c-1208 -5 -1236 -5 -1268 -25 -94 -57 -92 -201 4
-257 28 -16 124 -17 1410 -18 759 -1 1384 0 1389 2 6 1 38 -14 71 -35 34 -20
67 -37 73 -37 6 0 11 -7 11 -16 0 -26 65 -84 94 -84 44 0 95 27 114 60 11 19
46 48 97 77 44 25 100 61 124 80 25 18 48 30 53 25 8 -8 533 -925 845 -1477
97 -170 276 -487 399 -702 346 -608 489 -865 502 -902 17 -48 15 -135 -4 -179
-19 -47 -58 -88 -109 -115 -38 -21 -55 -22 -330 -25 l-290 -2 59 24 c32 14 64
30 69 35 15 15 40 14 31 -2 -4 -6 1 -4 12 5 16 14 44 18 154 20 l135 3 5 135
c4 113 8 140 25 165 17 25 20 43 17 135 -2 88 -6 113 -28 157 -36 75 -112 129
-242 174 -29 10 -73 36 -98 58 -71 62 -166 100 -259 101 -39 1 -43 5 -145 128
-143 173 -283 313 -345 343 -42 20 -65 24 -140 24 -75 0 -97 -4 -134 -24 -64
-33 -131 -105 -201 -214 l-61 -96 -47 30 c-67 43 -143 63 -206 54 -84 -11
-159 -59 -309 -200 l-139 -130 -130 -42 c-257 -84 -337 -155 -354 -316 -5 -46
-2 -72 10 -101 9 -21 16 -40 16 -41 0 -4 -842 -5 -849 -1 -6 4 0 138 17 396
12 161 4 189 -68 253 -32 28 -72 86 -125 177 -129 223 -252 432 -525 895 -101
171 -220 373 -265 450 -233 401 -311 528 -332 542 -63 42 -177 21 -232 -43
-75 -85 -70 -99 196 -556 127 -216 241 -411 254 -432 21 -36 21 -39 4 -33 -73
28 -203 13 -282 -33 l-33 -19 0 43 c0 51 -24 87 -72 107 -18 7 -42 25 -53 38
-11 14 -54 65 -97 113 -105 120 -137 168 -148 230 -13 68 -50 123 -94 139 -31
11 -34 16 -38 59 -3 27 -15 61 -27 78 -17 25 -20 36 -11 51 5 11 10 40 10 65
0 49 4 56 485 901 444 780 684 1202 771 1355 142 252 128 236 215 239 215 6
529 47 819 106 145 30 130 28 130 10 0 -8 5 -26 12 -41 11 -24 16 -26 66 -22
60 5 100 29 122 75 13 26 18 29 38 22 12 -5 36 -18 52 -30z m-1878 -108 c46
-13 88 -25 95 -26 7 -3 -42 -98 -121 -237 -196 -344 -570 -1002 -761 -1338
-92 -162 -279 -491 -415 -730 -136 -239 -323 -568 -415 -730 -92 -162 -198
-349 -236 -415 -37 -66 -71 -128 -74 -137 -12 -30 -20 -21 -44 50 -27 80 -36
53 89 272 154 270 449 789 540 950 51 91 112 199 135 240 23 41 116 206 206
365 89 160 225 400 302 535 77 135 170 297 206 360 35 63 137 241 224 395
l160 280 -2 115 c-2 105 -1 113 13 94 10 -14 43 -29 98 -43z m2801 52 c-7 -2
-19 -2 -25 0 -7 3 -2 5 12 5 14 0 19 -2 13 -5z m136 -213 c41 -78 82 -182 80
-204 0 -6 -4 -2 -9 9 l-9 20 -1 -20 c-2 -11 -2 -24 0 -30 1 -5 -7 -2 -18 8
-10 9 -24 17 -30 17 -8 0 -10 9 -7 23 4 15 1 28 -9 36 -9 7 -13 17 -10 22 3 5
0 8 -8 7 -7 -2 -25 23 -43 60 -16 34 -34 62 -40 62 -5 0 -21 -21 -35 -47 -14
-27 -42 -67 -64 -90 -31 -35 -36 -46 -27 -57 10 -11 8 -16 -8 -21 -24 -7 -29
-45 -7 -45 8 0 18 5 21 10 11 17 43 11 59 -12 21 -30 10 -35 -84 -37 l-78 -2
9 40 c18 79 60 174 111 252 l52 79 57 0 57 0 41 -80z m-226 48 c-40 -45 -95
-138 -117 -198 l-22 -61 -18 39 c-17 37 -17 42 -2 71 14 26 14 31 2 31 -8 0
-35 -31 -60 -69 -25 -38 -50 -72 -56 -76 -5 -3 -10 -17 -10 -31 0 -13 -5 -24
-11 -24 -7 0 -9 10 -4 28 12 50 69 133 133 193 83 78 222 159 165 97z m433
-100 c72 -68 134 -160 148 -218 3 -14 3 -19 0 -12 -5 10 -9 10 -20 1 -10 -8
-14 -8 -14 0 0 6 5 11 11 11 5 0 7 5 4 10 -4 6 -10 8 -15 5 -4 -3 -6 3 -4 12
3 11 -14 43 -41 78 -24 33 -45 63 -45 67 0 4 -13 14 -30 23 -33 17 -38 10 -15
-21 19 -25 19 -46 -1 -70 -14 -18 -15 -18 -4 4 11 23 5 62 -9 62 -5 0 -11 13
-14 29 -7 33 -48 63 -55 42 -4 -13 -10 -6 -52 62 l-23 39 52 -26 c28 -15 85
-59 127 -98z m-320 -54 c-29 -29 -48 -63 -41 -74 3 -6 11 -7 17 -4 7 5 8 2 4
-7 -4 -8 -1 -6 7 4 13 15 16 16 27 2 10 -12 16 -13 29 -3 9 7 3 -2 -13 -19
l-28 -31 -30 34 c-18 20 -27 38 -22 46 19 33 57 78 62 74 2 -3 -3 -13 -12 -22z
m32 -29 c-3 -3 -9 2 -12 12 -6 14 -5 15 5 6 7 -7 10 -15 7 -18z m345 -101 c-7
-19 -17 -17 -37 5 -14 16 -15 23 -6 41 l12 22 18 -27 c10 -15 16 -34 13 -41z
m-693 -5 c-9 -17 -14 -19 -20 -8 -5 7 -2 25 8 43 15 29 17 29 20 9 2 -12 -2
-32 -8 -44z m601 17 c5 -6 9 -18 9 -27 0 -10 9 -21 20 -24 30 -10 24 -25 -10
-25 -24 0 -30 4 -30 23 0 12 -2 40 -5 62 -2 22 -2 31 1 20 3 -11 10 -24 15
-29z m-218 -31 c-10 -13 -22 -25 -27 -25 -5 0 1 11 14 25 30 32 36 32 13 0z
m-348 -42 c-26 -18 -32 -7 -9 18 12 14 20 17 23 8 2 -7 -4 -18 -14 -26z m526
-69 c6 -4 6 -10 -1 -19 -8 -9 -6 -14 5 -19 9 -3 13 -2 10 4 -3 6 -4 10 -2 10
2 0 16 -18 31 -40 l26 -39 -315 0 c-255 0 -314 2 -308 13 4 7 22 31 38 54 l30
41 90 3 c131 4 385 -1 396 -8z m-592 -66 c-27 -39 -40 -46 -133 -78 l-103 -35
19 31 c10 17 27 39 37 48 17 15 170 74 199 75 6 1 -2 -18 -19 -41z m761 8 c2
3 -2 9 -10 14 -26 16 2 11 82 -16 43 -14 88 -34 100 -44 21 -18 20 -18 -17 1
-35 17 -40 18 -43 4 -6 -29 6 -42 52 -55 26 -7 45 -15 42 -17 -2 -3 -54 12
-115 31 -61 20 -117 36 -124 36 -7 0 -20 15 -29 34 l-16 33 36 -13 c21 -7 39
-10 42 -8z m-61 -112 c2 -2 -4 -15 -13 -29 l-16 -25 -318 0 -319 0 -23 25
c-18 19 -20 26 -9 30 30 11 685 10 698 -1z m246 -70 c80 -27 91 -33 55 -29
l-45 5 40 -20 c46 -22 81 -25 88 -7 4 7 6 6 6 -4 1 -9 -6 -22 -14 -29 -11 -9
-43 -3 -157 30 -147 43 -183 58 -113 46 31 -5 37 -4 25 4 -12 9 -10 10 10 5
65 -17 71 -14 20 10 -30 15 -70 27 -87 28 -31 2 -39 7 -28 19 6 6 50 -7 200
-58z m-983 31 l18 -24 -78 -29 c-181 -68 -213 -77 -222 -62 -18 29 -9 37 73
68 45 18 105 40 132 51 63 24 57 24 77 -4z m667 -517 l2 -438 -280 0 -279 0
-4 51 c-1 28 -1 225 1 438 l3 387 277 0 278 -1 2 -437z m-630 3 l2 -429 -123
37 -123 38 -3 345 -2 345 37 16 c43 19 195 76 204 76 4 1 7 -192 8 -428z m964
357 l47 -11 -2 -350 -3 -350 -130 -33 c-71 -19 -141 -36 -155 -40 l-25 -6 5
259 c4 220 5 235 8 100 l3 -157 37 -24 c42 -26 57 -42 66 -71 5 -17 1 -20 -27
-22 -28 -1 -33 2 -33 19 1 28 -21 34 -29 8 -13 -40 11 -52 89 -45 67 7 136 33
108 43 -28 9 -3 71 40 96 l30 18 -6 172 c-8 229 -8 236 -29 247 -22 13 -47 61
-47 93 0 28 -34 58 -57 49 -7 -3 -20 -18 -28 -33 -8 -15 -36 -44 -63 -63 -43
-32 -48 -39 -44 -69 2 -18 -1 -44 -7 -58 -7 -18 -10 18 -10 137 l-1 161 108
-29 c59 -16 128 -35 155 -41z m-4787 47 c10 -8 34 -15 52 -15 l32 0 0 -66 c0
-52 -3 -65 -14 -61 -73 28 -178 51 -256 57 -88 5 -92 6 -49 14 25 4 65 9 87 9
23 1 42 5 42 8 0 3 -19 12 -42 19 -24 7 -38 15 -31 17 6 2 35 -3 64 -11 31
-10 67 -14 87 -10 l33 6 -22 24 c-25 26 -14 32 17 9z m4717 -180 c10 -16 21
-37 26 -45 30 -54 42 -121 41 -235 l-1 -120 -34 -28 c-24 -19 -36 -40 -42 -69
-10 -52 -26 -58 -43 -18 -7 17 -32 47 -55 66 l-43 34 -4 133 c-3 95 -1 141 9
164 7 18 13 46 13 62 0 23 8 34 36 52 21 12 43 38 52 58 l15 36 7 -30 c4 -16
14 -43 23 -60z m691 -63 c2 -4 -2 -31 -10 -61 -8 -31 -11 -76 -8 -110 8 -83 1
-87 -89 -50 -74 30 -77 33 -76 63 1 17 -1 45 -5 63 -7 29 -4 34 31 56 21 14
51 39 67 55 l29 31 28 -20 c16 -11 30 -23 33 -27z m101 -44 c2 -13 6 -50 8
-83 2 -33 9 -89 16 -124 7 -35 10 -66 7 -68 -2 -3 -25 4 -50 16 -30 13 -50 29
-56 46 -17 45 -12 122 11 168 37 72 55 85 64 45z m204 -8 c25 0 58 6 73 14 26
14 26 14 33 -30 5 -36 2 -51 -15 -79 -12 -19 -17 -35 -12 -35 12 0 39 31 52
60 9 22 10 21 4 -10 -3 -19 -8 -72 -11 -117 l-4 -83 -72 0 c-40 0 -96 3 -124
6 -51 7 -53 8 -63 44 -13 47 -15 123 -6 180 14 83 12 81 58 64 22 -8 61 -14
87 -14z m-5949 -75 c0 47 13 34 31 -30 11 -43 46 -88 60 -79 5 3 9 -1 9 -8 0
-7 -21 -25 -46 -40 -40 -25 -45 -26 -51 -10 -3 9 -21 56 -39 104 -19 48 -34
91 -34 95 1 5 16 -10 35 -32 l35 -40 0 40z m6224 3 c-18 -57 -22 -97 -17 -155
l6 -63 -52 0 c-59 0 -66 8 -66 80 0 39 6 53 38 90 20 24 37 50 37 57 0 8 12
13 31 13 27 0 30 -2 23 -22z m92 -110 c-1 -115 -2 -123 -21 -126 -11 -1 -26 2
-34 7 -20 13 -26 104 -10 143 18 46 50 98 58 98 4 0 7 -55 7 -122z m-6510 72
c10 0 70 -238 62 -244 -2 -2 -34 -16 -73 -31 -38 -15 -73 -32 -77 -38 -8 -13
-9 -13 -32 38 l-18 40 26 -24 c39 -36 54 -17 34 44 l-16 46 23 -21 23 -22 7
30 c4 18 0 44 -9 66 -16 39 -12 45 15 20 17 -15 18 -14 25 10 4 17 -1 39 -15
66 -26 50 -26 58 -3 37 10 -10 23 -17 28 -17z m612 -111 c4 -51 2 -50 -26 13
l-20 47 21 -8 c17 -6 23 -18 25 -52z m-244 -14 c5 -22 4 -26 -4 -15 -5 8 -10
24 -10 34 0 26 6 18 14 -19z m-13 -22 c16 -10 29 -20 29 -23 0 -4 -29 -32 -65
-64 -71 -62 -66 -62 -87 3 -3 11 76 100 90 101 2 0 17 -8 33 -17z m-277 -184
c9 -49 7 -59 -11 -59 -15 0 -16 2 -3 10 8 5 12 12 9 15 -8 7 -148 -86 -174
-116 -12 -13 -14 -19 -5 -14 8 5 -9 -18 -39 -51 -29 -32 -58 -61 -63 -63 -26
-9 24 142 55 168 10 7 17 25 17 39 0 14 3 22 7 19 3 -4 13 -1 22 7 13 12 150
71 172 75 4 1 9 -13 13 -30z m-323 -210 c18 -26 19 -30 5 -45 -9 -8 -16 -22
-16 -30 0 -10 -12 -14 -38 -14 l-38 0 8 90 c3 49 10 95 14 101 3 6 14 -7 25
-31 10 -23 28 -55 40 -71z m4469 34 c25 -6 34 -14 32 -26 -2 -10 4 -17 13 -17
10 0 13 5 9 12 -4 7 -3 8 5 4 6 -4 9 -11 6 -16 -3 -4 1 -11 7 -14 24 -10 -46
5 -115 25 -46 13 -81 31 -105 54 l-37 34 75 -23 c41 -13 91 -27 110 -33z m990
43 c0 -18 -79 -59 -148 -77 -78 -20 -115 -20 -82 1 22 14 -6 13 -33 -2 -21
-11 -21 -11 -2 -19 20 -9 20 -9 0 -7 -11 2 -27 -1 -35 -6 -8 -5 -3 4 13 20 22
23 51 35 150 61 135 34 137 35 137 29z m-453 -52 c24 -5 30 -10 27 -30 -2 -26
14 -31 36 -11 12 10 12 9 1 -5 -12 -16 -33 -18 -205 -17 -105 1 -184 3 -174 6
20 5 33 36 17 42 -52 17 218 31 298 15z m-5470 -119 c2 -50 -2 -85 -7 -85 -6
0 -10 37 -10 85 0 47 3 85 8 85 4 0 8 -38 9 -85z m5733 -10 c-41 -41 -94 -89
-119 -106 l-46 -31 40 37 c22 20 35 34 28 30 -13 -6 -35 27 -32 48 3 25 -1 38
-11 32 -5 -3 -10 -2 -10 3 0 5 48 20 108 34 59 14 109 26 112 27 2 0 -29 -33
-70 -74z m-733 35 c61 -17 76 -26 88 -51 9 -16 13 -35 9 -41 -4 -6 -3 -8 3 -5
6 4 20 -8 31 -26 11 -19 28 -47 38 -62 23 -35 17 -32 -83 41 -89 66 -206 177
-178 170 11 -2 53 -14 92 -26z m380 -46 c3 -8 0 -34 -7 -57 -7 -23 -19 -62
-25 -87 l-12 -44 -22 64 c-28 86 -56 130 -81 130 -21 0 -27 -19 -11 -35 14
-16 83 -176 78 -182 -5 -4 -84 123 -121 196 l-17 31 106 0 c87 0 107 -3 112
-16z m37 -131 c-60 -109 -69 -111 -31 -7 12 34 27 59 34 57 6 -2 14 1 18 6 3
6 8 11 11 11 3 0 -12 -30 -32 -67z m-5649 27 c3 -6 -1 -7 -10 -4 -9 4 -15 2
-13 -3 2 -5 -11 -23 -28 -40 -32 -33 -48 -85 -59 -198 -3 -33 -9 -76 -12 -95
l-7 -35 -6 40 c-6 34 -7 31 -8 -25 0 -48 2 -58 8 -40 6 15 7 -8 3 -60 -3 -53
-10 -89 -18 -96 -8 -5 -16 -28 -18 -50 -3 -21 -3 6 -1 61 7 163 34 458 45 487
10 23 37 42 89 61 23 8 28 8 35 -3z m5739 -49 c3 -5 -1 -11 -9 -14 -9 -4 -12
-1 -8 9 6 16 10 17 17 5z m-3961 -388 c47 -53 17 -123 -52 -123 -76 0 -102 81
-42 127 24 18 76 16 94 -4z m20 -201 c16 -16 27 -36 26 -51 0 -26 0 -26 -9 -3
-12 30 -26 28 -57 -8 -19 -23 -33 -30 -59 -30 -24 0 -33 -4 -28 -11 4 -7 1
-10 -7 -7 -23 8 -43 52 -35 81 8 35 69 67 111 60 17 -3 42 -17 58 -31z m-1976
-184 c-2 -18 -4 -6 -4 27 0 33 2 48 4 33 2 -15 2 -42 0 -60z m1958 13 c50 -5
77 -9 61 -9 -30 -2 -31 -6 -10 -81 l7 -24 -162 5 c-167 5 -182 0 -75 -22 64
-13 288 -9 333 5 16 6 22 5 18 -3 -4 -5 -38 -16 -75 -22 -82 -15 -366 -10
-383 7 -26 26 25 123 75 143 25 10 89 10 211 1z m-1968 -138 c-3 -10 -5 -2 -5
17 0 19 2 27 5 18 2 -10 2 -26 0 -35z m1795 -53 c75 -12 298 -9 343 5 16 5 24
0 35 -22 8 -15 43 -63 77 -105 35 -43 58 -78 52 -78 -6 0 -8 -9 -3 -22 11 -35
-47 38 -86 107 -42 77 -80 109 -80 69 0 -18 51 -113 82 -154 19 -23 19 -25 1
-31 -38 -15 -51 -10 -58 24 -11 55 -48 167 -56 167 -19 0 -19 -25 0 -92 11
-40 21 -86 23 -103 2 -23 11 -34 35 -45 37 -17 45 -55 15 -64 -10 -4 -117 -7
-238 -8 -214 -1 -348 11 -467 43 l-38 10 67 77 c62 71 114 144 156 221 14 26
21 30 40 22 13 -4 57 -14 100 -21z m-1177 -274 c66 -30 136 -97 180 -171 45
-75 97 -236 125 -383 25 -135 34 -158 69 -170 14 -6 54 -20 88 -32 75 -27 122
-73 151 -152 55 -147 29 -282 -76 -400 -56 -62 -92 -78 -174 -78 -121 0 -262
97 -321 221 -39 84 -45 162 -29 434 19 333 4 428 -84 525 -50 55 -97 78 -190
91 l-77 12 39 34 c22 19 71 50 109 69 79 39 104 39 190 0z m1706 -19 c-12 -12
-31 0 -31 19 0 12 3 12 20 2 11 -7 16 -16 11 -21z m2 -24 c-7 -2 -19 -2 -25 0
-7 3 -2 5 12 5 14 0 19 -2 13 -5z m-2172 -50 c12 -16 12 -17 -1 -7 -8 6 -22
14 -30 17 -13 5 -12 6 1 6 9 1 23 -7 30 -16z m1282 -8 c143 -46 251 -58 502
-58 211 0 241 2 365 27 74 15 146 34 158 42 13 9 25 14 28 12 8 -9 -83 -58
-130 -71 -28 -8 -80 -21 -116 -31 -118 -31 -183 -39 -345 -40 -278 -2 -465 24
-536 74 -30 22 -33 28 -23 54 8 20 4 20 97 -9z m1546 -86 c55 -23 119 -85 149
-146 63 -124 55 -361 -18 -526 -21 -47 -21 -47 -70 -47 l-49 0 34 67 c73 143
87 343 31 457 -30 61 -82 110 -136 127 -19 7 -38 17 -42 23 -5 6 -8 7 -8 1 0
-5 -21 -11 -48 -11 -44 -2 -45 -1 -14 7 50 15 38 22 -25 15 -68 -8 -130 -34
-186 -78 -42 -33 -41 -23 3 28 92 107 245 141 379 83z m-459 -59 c-6 -12 -14
-19 -17 -17 -2 3 1 15 7 27 6 12 14 19 17 17 2 -3 -1 -15 -7 -27z m-1054 -50
c23 -9 24 -14 24 -95 0 -91 -4 -96 -55 -76 -16 6 -19 16 -17 57 4 75 14 151
20 136 2 -7 15 -17 28 -22z m932 -100 c-1 -27 0 -46 5 -43 4 2 7 0 7 -5 0 -8
-51 -32 -66 -32 -2 0 -4 35 -4 78 0 47 4 72 9 63 7 -11 9 -11 14 0 4 12 7 11
16 -1 9 -12 11 -11 12 10 l2 25 4 -24 c3 -13 3 -45 1 -71z m-810 63 l32 -6 0
-84 c0 -76 -2 -84 -17 -79 -10 2 -37 8 -61 11 -33 5 -42 11 -38 22 3 8 6 46 6
85 0 68 1 70 23 64 12 -4 37 -9 55 -13z m733 -139 c7 -8 -2 -13 -30 -18 -22
-3 -46 -9 -55 -12 -14 -5 -16 5 -16 73 l0 80 29 -5 c17 -2 34 2 42 11 12 13
14 5 17 -51 2 -36 7 -71 13 -78z m-564 112 c1 -1 4 -39 6 -83 l4 -82 -51 5
c-28 3 -55 7 -61 9 -6 1 -9 35 -7 84 l4 81 51 -6 c29 -4 53 -7 54 -8z m1143 1
c25 -13 70 -72 70 -91 -1 -6 -8 3 -17 19 -22 42 -29 45 -104 45 -50 0 -77 -6
-110 -23 -41 -22 -44 -27 -50 -73 l-6 -49 -1 43 c-1 24 5 56 13 71 29 56 144
89 205 58z m-708 -72 c3 -83 2 -85 -78 -85 l-41 0 2 73 1 72 50 6 c27 3 52 7
56 7 3 1 8 -32 10 -73z m-292 8 c0 -32 3 -68 6 -80 6 -22 4 -23 -55 -23 l-61
0 0 80 0 80 55 0 55 0 0 -57z m150 -26 l5 -77 -62 0 -63 0 0 80 0 81 58 -3 57
-3 5 -78z m-569 -72 c113 -39 242 -56 437 -55 205 0 397 25 495 65 9 4 17 3
17 -2 0 -12 -110 -45 -230 -70 -179 -37 -566 -20 -732 33 -45 15 -68 13 -68
-5 0 -11 161 -58 250 -73 115 -19 435 -16 550 5 52 10 103 20 112 23 17 5 28
-10 63 -86 40 -86 211 -218 288 -221 23 -1 15 -4 -26 -11 -57 -10 -59 -10
-111 25 -30 20 -97 77 -149 127 -52 49 -101 90 -109 90 -9 0 -32 -29 -53 -64
-21 -36 -67 -97 -102 -136 -37 -39 -63 -76 -60 -84 3 -7 17 -16 32 -20 43 -11
105 -55 186 -133 54 -51 84 -73 102 -73 24 0 25 -3 32 -81 6 -68 5 -83 -10
-99 -23 -25 -128 -66 -192 -75 -60 -8 -68 2 -27 34 14 11 23 24 20 30 -9 15 4
41 21 41 9 0 26 -12 40 -26 23 -25 43 -28 50 -7 2 6 -8 25 -23 42 -22 27 -33
32 -63 29 -33 -3 -38 -8 -66 -64 -16 -33 -38 -71 -47 -84 -9 -13 -15 -27 -11
-33 10 -17 241 21 294 49 26 13 27 12 31 -16 4 -28 1 -31 -48 -49 -29 -11 -92
-28 -141 -38 -120 -24 -435 -24 -578 0 -98 17 -233 56 -287 83 l-27 14 36 75
c34 73 35 76 18 95 -10 11 -22 17 -26 14 -5 -3 -6 2 -3 11 6 15 8 15 24 0 10
-9 33 -44 51 -78 68 -129 82 -137 270 -164 104 -14 122 -15 130 -2 13 21 11
34 -12 63 -29 37 -53 35 -47 -5 l5 -31 -51 6 c-28 3 -62 6 -74 6 l-24 0 26 31
c14 17 26 39 26 50 0 21 20 25 38 7 19 -19 37 4 23 31 -26 47 -95 12 -122 -63
-12 -33 -16 -36 -39 -31 -39 10 -68 43 -112 128 -22 43 -52 87 -66 98 -24 19
-26 25 -27 119 -1 96 0 98 20 88 48 -26 126 -92 121 -104 -3 -7 3 -34 13 -61
14 -39 22 -49 44 -51 22 -3 32 5 61 51 40 63 106 123 171 158 25 13 45 30 45
37 0 8 -36 47 -79 88 -44 41 -93 97 -111 124 -18 28 -34 50 -35 50 -2 0 -63
-59 -137 -132 l-133 -132 -3 33 c-3 30 2 39 44 75 52 44 134 150 134 172 0 29
-26 12 -65 -42 -22 -30 -62 -75 -90 -99 l-51 -43 -51 57 -51 57 50 64 c27 35
65 92 84 127 20 35 37 63 38 63 1 0 36 -11 77 -25z m1109 3 c0 -6 -6 -5 -15 2
-8 7 -15 14 -15 16 0 2 7 1 15 -2 8 -4 15 -11 15 -16z m-117 -67 c10 -17 45
-67 79 -113 34 -46 55 -77 46 -71 -12 10 -15 10 -15 -2 0 -8 4 -15 8 -15 5 0
6 -7 3 -15 -5 -11 -2 -13 10 -9 9 3 13 11 9 18 -3 6 2 3 13 -6 10 -9 27 -30
36 -46 16 -27 16 -31 2 -43 -13 -11 -19 -9 -37 13 -12 14 -42 40 -67 58 -25
18 -73 60 -107 94 -34 33 -71 69 -82 79 -31 25 -26 44 17 57 20 7 41 16 47 21
14 14 19 11 38 -20z m364 -33 c55 -2 98 -9 107 -17 13 -11 17 -10 25 10 14 36
13 3 -4 -75 -17 -80 -52 -145 -99 -181 -42 -32 -52 -31 -61 2 -10 40 -52 108
-106 171 l-48 56 25 23 c13 12 24 32 24 44 0 22 0 22 23 -3 21 -23 33 -26 114
-30z m522 -217 c50 -91 91 -168 91 -171 0 -4 -21 -12 -47 -18 -46 -10 -49 -9
-78 18 -31 29 -101 70 -121 70 -6 0 -1 28 13 71 14 40 27 103 30 141 3 38 9
65 13 61 4 -4 49 -82 99 -172z m-1030 51 c23 -29 65 -69 92 -89 l50 -36 -48
-47 c-58 -57 -93 -103 -93 -123 0 -9 -4 -19 -10 -22 -5 -3 -10 -2 -10 3 0 20
-87 95 -143 124 l-59 29 49 52 c27 29 65 78 83 109 19 32 38 56 41 55 4 -1 26
-26 48 -55z m4169 20 c53 -26 147 -116 207 -198 16 -21 56 -70 90 -109 33 -38
55 -66 49 -62 -11 6 -84 -58 -84 -74 0 -4 -36 9 -80 28 -102 44 -202 59 -285
43 -59 -12 -128 -41 -140 -59 -3 -6 -20 -20 -37 -33 -17 -12 -29 -17 -25 -12
3 6 9 25 12 42 4 26 2 32 -13 32 -10 0 -22 3 -26 8 -4 4 -17 7 -29 7 -16 0
-21 6 -19 19 2 10 -1 15 -7 12 -5 -4 -22 10 -37 30 -32 41 -35 29 57 174 63
99 115 148 181 171 64 23 112 18 186 -19z m-4837 -38 c17 -25 56 -70 86 -101
30 -30 53 -55 51 -57 -70 -44 -96 -67 -153 -130 -37 -41 -72 -73 -77 -70 -5 3
-4 12 3 20 21 25 -1 66 -68 130 l-65 63 37 33 c21 18 43 36 49 40 7 4 32 32
56 62 25 31 46 56 47 56 1 0 16 -21 34 -46z m859 -143 c-8 -5 -26 -12 -40 -15
-24 -7 -24 -6 -6 8 11 9 29 16 40 16 17 -1 18 -2 6 -9z m590 -52 c137 -17 229
-72 124 -75 -21 -1 -57 -7 -79 -13 -95 -28 -529 -24 -612 5 -14 5 -15 4 -7 -5
42 -46 514 -57 656 -15 16 5 16 2 4 -27 -8 -18 -24 -37 -37 -43 -15 -7 -124
-11 -280 -11 -228 0 -253 -2 -238 -15 10 -8 21 -32 25 -52 6 -37 6 -38 -25
-38 -28 0 -31 3 -33 33 -1 17 -1 44 0 58 1 20 -4 28 -21 33 -42 11 -44 8 -36
-41 4 -27 8 -69 8 -94 1 -33 6 -49 17 -53 27 -11 34 -7 34 20 0 25 2 26 43 21
23 -3 51 -7 62 -9 11 -1 19 2 18 8 -3 15 155 27 230 18 l55 -7 7 -43 c4 -28
12 -44 23 -47 9 -2 -14 -7 -51 -12 -77 -8 -358 9 -387 25 -33 18 -53 13 -46
-12 6 -22 9 -64 25 -337 l6 -113 50 -19 c82 -31 228 -45 342 -31 139 17 173
29 173 62 0 14 4 30 9 35 5 6 11 19 14 30 7 30 8 -54 1 -97 -4 -21 -9 -36 -13
-34 -3 2 -37 -4 -76 -15 -102 -26 -324 -26 -430 1 -82 21 -96 20 -76 -4 19
-23 99 -46 203 -58 111 -12 243 0 337 32 31 10 58 17 60 15 2 -2 1 -15 -3 -28
-7 -29 -55 -52 -151 -72 -130 -27 -324 -10 -422 37 -42 19 -43 21 -43 67 0 41
-41 457 -69 696 -6 44 -17 97 -25 117 -14 34 -14 38 1 53 59 60 365 86 633 54z
m2737 10 c54 -20 104 -62 157 -133 53 -71 116 -184 116 -208 0 -30 -50 -86
-82 -93 -18 -4 -46 -14 -63 -23 l-30 -15 19 22 c19 21 19 21 -7 21 -20 0 -37
-13 -69 -54 -41 -51 -133 -128 -161 -134 -7 -1 -26 4 -41 12 -28 14 -55 12
-67 -6 -3 -5 -23 -11 -44 -15 -30 -5 -41 -2 -51 12 -8 11 -14 13 -14 7 0 -17
-50 -15 -56 3 -5 11 -11 12 -26 4 -23 -12 -68 12 -68 36 0 8 -8 15 -18 15 -11
0 -27 9 -37 20 -10 11 -21 17 -26 15 -4 -3 -14 2 -23 10 -14 14 -16 13 -22
-11 -9 -34 -24 -12 -24 35 0 26 7 39 32 60 18 14 105 98 193 187 88 88 176
173 196 187 68 51 155 69 216 46z m-3457 -131 c0 -21 -20 -24 -38 -6 -9 9 -8
16 5 30 18 20 33 9 33 -24z m1366 31 c126 -22 184 -52 186 -95 0 -15 -37 -391
-43 -431 -4 -25 -17 63 -18 120 -1 67 -1 68 -34 82 -50 21 -231 38 -322 30
-114 -10 -125 -16 -125 -65 0 -22 -4 -40 -10 -40 -5 0 -10 16 -10 35 0 23 -6
38 -16 42 -23 9 -35 -16 -30 -62 12 -99 35 -442 33 -490 -2 -25 4 -32 36 -48
88 -41 238 -49 362 -17 43 11 84 25 91 31 11 9 15 7 20 -5 3 -9 4 -23 1 -31
-16 -41 -206 -91 -307 -80 -78 9 -184 41 -202 62 -9 11 -18 47 -21 93 -5 71
-49 495 -67 660 -5 41 -12 87 -15 102 -13 51 52 88 186 108 81 11 238 11 305
-1z m2834 -138 c49 -15 146 -75 143 -89 -2 -6 4 -9 12 -6 8 4 49 -22 100 -63
47 -37 103 -80 124 -94 38 -25 39 -26 25 -58 -12 -28 -18 -33 -39 -29 -13 3
-22 2 -20 -2 4 -6 -58 -70 -68 -70 -1 0 -16 -4 -34 -9 -22 -6 -39 -5 -56 4
-21 11 -25 11 -21 0 4 -8 -8 -17 -30 -25 -33 -11 -35 -13 -20 -28 15 -15 15
-16 -2 -23 -16 -7 -16 -8 6 -10 14 -1 -13 -5 -60 -10 -102 -8 -306 -11 -298
-4 3 3 41 6 85 6 61 0 80 3 80 14 0 11 -5 11 -20 3 -11 -5 -17 -6 -13 0 6 9
-45 7 -96 -4 -16 -4 -28 -2 -28 2 0 5 -53 10 -118 11 -106 1 -121 4 -162 27
-50 29 -87 36 -54 11 14 -11 14 -13 3 -9 -11 3 -25 -5 -39 -23 l-22 -28 29 -6
c21 -5 15 -7 -24 -8 -48 -1 -53 1 -59 24 -8 32 9 53 51 61 35 6 53 30 35 48
-15 15 -12 73 6 90 8 9 27 18 42 21 52 11 76 31 125 103 90 132 198 197 317
188 36 -2 81 -9 100 -15z m551 -32 c39 -19 90 -67 121 -114 l20 -30 -24 28
c-26 30 -38 27 -38 -8 0 -33 -24 -48 -62 -40 l-33 6 25 -21 25 -21 -32 15
c-18 9 -45 16 -62 16 -33 0 -204 115 -198 133 7 22 55 48 103 56 61 9 108 3
155 -20z m-5781 -63 c-27 -20 -61 -76 -54 -87 3 -6 -3 -5 -14 2 -20 13 -20 13
3 43 12 17 31 47 40 66 18 35 18 35 29 11 8 -18 7 -26 -4 -35z m1320 -117 c19
-5 49 -9 65 -9 39 0 59 -14 52 -34 -6 -15 -10 -15 -36 5 -26 19 -32 20 -63 9
-45 -17 -92 -2 -96 29 -3 20 -1 22 20 15 13 -4 39 -11 58 -15z m480 1 c0 -16
-49 -32 -107 -34 -29 -2 -59 -8 -67 -15 -12 -10 -20 -9 -40 5 -17 10 -37 14
-55 11 -33 -7 -71 1 -71 15 0 7 33 8 93 4 65 -4 108 -2 147 8 68 17 100 19
100 6z m-1720 -89 c172 -60 270 -75 500 -75 161 0 215 4 309 22 63 12 117 20
119 17 3 -3 -2 -5 -12 -5 -10 0 -21 -12 -27 -29 -9 -25 -18 -31 -62 -41 -281
-61 -693 -21 -972 96 -36 14 -36 15 -18 39 10 14 25 23 33 21 8 -3 67 -23 130
-45z m1268 2 c36 -22 60 -88 73 -196 14 -123 11 -131 -43 -122 -23 4 -58 13
-78 20 l-35 12 -11 149 c-7 82 -10 153 -7 157 6 11 73 -2 101 -20z m430 -60
c-3 -43 -7 -113 -7 -155 l-1 -77 -37 -10 c-21 -6 -61 -13 -90 -17 l-52 -6 4
33 c2 19 6 67 9 108 6 88 44 178 79 186 111 23 104 28 95 -62z m-191 45 c-2
-7 -12 -13 -23 -14 -10 0 -27 -4 -37 -8 -10 -5 -23 -3 -32 4 -11 9 -18 10 -28
1 -15 -12 -27 -5 -27 16 0 10 19 13 76 13 56 0 75 -3 71 -12z m-517 -8 c0 -5
-10 -10 -22 -9 -22 0 -22 1 -3 9 11 5 21 9 23 9 1 1 2 -3 2 -9z m2533 -82
c-11 -57 73 -105 108 -62 14 18 26 16 119 -18 49 -17 66 -28 68 -44 3 -20 52
-76 52 -59 0 4 -10 24 -22 43 l-22 35 25 -6 c77 -22 244 -51 354 -62 183 -19
285 -26 444 -32 l185 -6 -39 -34 c-21 -18 -32 -33 -24 -33 16 0 69 46 69 60 0
6 38 10 88 10 123 0 398 18 525 35 105 14 109 14 130 -6 22 -20 64 -35 73 -26
3 3 -10 16 -30 29 l-36 25 81 17 c160 34 322 94 387 143 18 14 36 23 38 20 11
-10 -25 -74 -55 -100 -32 -26 -32 -26 -51 -7 -11 11 -24 20 -30 20 -17 0 -11
-18 12 -34 12 -9 20 -16 16 -16 -3 0 -22 -7 -42 -15 l-37 -15 7 27 c7 27 6 28
-13 11 -22 -21 -44 -23 -60 -7 -8 8 -17 5 -33 -11 -27 -27 -21 -35 13 -19 17
8 34 8 54 2 28 -10 27 -10 -32 -32 -115 -43 -326 -87 -540 -113 -176 -21 -838
-18 -1039 5 -157 18 -324 46 -401 67 -145 41 -292 105 -337 147 -50 48 -66
130 -19 101 15 -9 18 -19 14 -40z m-2043 -91 c-6 -160 -24 -170 -28 -16 -2 94
0 115 14 130 10 11 18 18 18 17 1 -2 -1 -60 -4 -131z m-72 3 c1 -62 0 -120 -3
-129 -14 -35 -24 12 -27 127 -3 105 -1 122 12 120 12 -3 16 -25 18 -118z
m-2184 73 c13 -39 72 -96 102 -98 73 -5 70 -3 52 -21 -13 -13 -20 -14 -39 -4
-20 9 -20 8 4 -10 l27 -22 0 -132 c0 -89 4 -136 12 -144 9 -9 213 -12 855 -12
l843 0 41 -27 c23 -15 66 -33 98 -39 45 -10 -138 -12 -959 -11 l-1015 2 -46
27 c-63 37 -96 78 -115 146 -14 46 -15 64 -5 106 11 48 119 256 133 256 4 0 9
-8 12 -17z m4379 -4 l42 -22 -34 -16 c-31 -15 -34 -14 -47 4 -14 18 -19 55 -9
55 3 0 25 -10 48 -21z m-2756 -25 c-3 -3 -12 -4 -19 -1 -8 3 -5 6 6 6 11 1 17
-2 13 -5z m-60 -10 c-3 -3 -12 -4 -19 -1 -8 3 -5 6 6 6 11 1 17 -2 13 -5z
m-757 -144 c61 -33 62 -41 1 -10 -45 23 -101 68 -101 81 0 6 10 -1 23 -15 12
-14 47 -39 77 -56z m85 34 l60 -14 -53 5 c-29 3 -62 10 -75 15 -33 13 0 11 68
-6z m112 -20 c-3 -3 -12 -4 -19 -1 -8 3 -5 6 6 6 11 1 17 -2 13 -5z m520 0
c-3 -3 -12 -4 -19 -1 -8 3 -5 6 6 6 11 1 17 -2 13 -5z m-349 -11 c-10 -2 -28
-2 -40 0 -13 2 -5 4 17 4 22 1 32 -1 23 -4z m220 0 c-10 -2 -28 -2 -40 0 -13
2 -5 4 17 4 22 1 32 -1 23 -4z m1980 -16 c6 -7 12 -33 14 -57 3 -43 5 -45 35
-48 18 -2 42 2 54 8 17 10 23 9 30 -1 14 -22 11 -36 -17 -68 -36 -43 -89 -43
-139 0 -33 29 -35 35 -35 89 0 32 3 65 6 74 7 19 37 21 52 3z m511 -21 c19
-41 1 -97 -47 -136 -56 -47 -109 -52 -146 -14 -37 36 3 84 69 84 41 0 45 2 45
24 0 14 5 37 10 51 13 35 50 31 69 -9z m190 20 c6 -7 8 -26 5 -44 -8 -41 26
-64 87 -60 42 3 44 2 41 -22 -6 -59 -87 -88 -152 -55 -32 16 -70 80 -70 115 0
60 58 103 89 66z m-3791 -93 l-3 -97 -30 -12 -30 -12 3 109 3 109 30 0 30 0
-3 -97z m262 62 c13 -40 3 -84 -27 -118 -36 -40 -126 -60 -151 -35 -7 7 -12
26 -12 44 0 35 25 51 90 56 34 3 35 5 38 46 3 37 6 42 27 42 18 0 26 -8 35
-35z m3068 -62 l-3 -98 -27 -3 -28 -3 0 100 0 101 30 0 31 0 -3 -97z m702 -29
c0 -47 -4 -63 -16 -68 -40 -15 -44 -9 -44 79 l0 84 30 -17 c28 -16 30 -21 30
-78z m-2773 70 c-3 -3 -12 -4 -19 -1 -8 3 -5 6 6 6 11 1 17 -2 13 -5z m-64
-11 c-7 -2 -21 -2 -30 0 -10 3 -4 5 12 5 17 0 24 -2 18 -5z m5387 -90 c0 -38
-3 -43 -22 -43 -22 0 -23 3 -20 71 l4 72 19 -29 c11 -17 19 -47 19 -71z
m-5512 80 c-42 -2 -114 -2 -160 0 -46 1 -11 3 77 3 88 0 125 -2 83 -3z m3252
-13 c77 -22 324 -60 465 -72 206 -17 937 -17 1075 0 119 15 290 45 368 66 28
8 52 12 52 10 0 -16 -163 -78 -259 -100 -151 -34 -243 -43 -361 -37 -108 6
-175 -2 -164 -19 5 -8 -64 -9 -252 -5 -455 11 -756 56 -909 135 -65 34 -68 37
-15 22z m2167 -32 c-3 -8 -6 -5 -6 6 -1 11 2 17 5 13 3 -3 4 -12 1 -19z
m-2332 -38 l39 -40 -30 0 c-35 0 -74 32 -74 60 0 31 22 24 65 -20z m-3730 0
c10 -11 16 -20 13 -20 -3 0 -13 9 -23 20 -10 11 -16 20 -13 20 3 0 13 -9 23
-20z m908 -37 c-7 -2 -21 -2 -30 0 -10 3 -4 5 12 5 17 0 24 -2 18 -5z m4300
-40 c-7 -2 -21 -2 -30 0 -10 3 -4 5 12 5 17 0 24 -2 18 -5z m-3297 -29 c9 -14
33 -34 53 -44 l36 -19 -175 0 c-170 1 -174 1 -118 15 32 7 83 27 115 43 32 17
61 30 65 31 4 0 15 -11 24 -26z m1967 -6 c23 -12 67 -29 97 -39 54 -18 38 -18
-715 -18 -595 0 -766 3 -751 12 10 7 34 24 53 40 l36 27 619 0 c615 0 619 0
661 -22z m230 -45 c-7 -2 -19 -2 -25 0 -7 3 -2 5 12 5 14 0 19 -2 13 -5z
m1552 -3 c-11 -5 -29 -9 -40 -9 l-20 0 20 9 c11 5 29 9 40 9 l20 0 -20 -9z"/>
<path d="M2850 7546 l-125 -21 3 -170 c2 -93 4 -170 5 -171 1 -1 36 4 77 12
41 8 99 17 129 19 30 2 67 7 83 10 l28 7 0 169 0 169 -37 -1 c-21 -1 -94 -11
-163 -23z"/>
<path d="M2881 6974 c-19 -24 -20 -35 -15 -128 4 -55 8 -102 9 -104 1 -2 24 2
49 9 l47 12 -6 101 c-10 132 -38 169 -84 110z"/>
<path d="M6434 4713 c-24 -12 -48 -46 -105 -147 -40 -72 -172 -304 -292 -516
-120 -212 -238 -419 -262 -460 -56 -99 -199 -353 -320 -570 -54 -96 -132 -236
-175 -310 -42 -74 -80 -149 -83 -166 -19 -96 77 -204 180 -204 22 0 58 10 83
23 40 20 51 36 135 187 160 286 246 441 538 970 157 283 335 605 397 715 153
273 162 291 163 341 1 113 -148 193 -259 137z"/>
<path d="M6385 6511 c-7 -12 12 -24 25 -16 6 3 10 2 10 -4 0 -6 10 -6 28 0 15
4 65 12 112 17 l85 9 -127 2 c-70 0 -129 -3 -133 -8z"/>
<path d="M6710 6510 c14 -4 45 -8 70 -8 37 0 40 1 20 8 -14 4 -45 8 -70 8 -37
0 -40 -1 -20 -8z"/>
<path d="M6090 6379 c0 -5 5 -7 10 -4 6 3 10 8 10 11 0 2 -4 4 -10 4 -5 0 -10
-5 -10 -11z"/>
<path d="M5978 6233 c-10 -2 -18 -9 -18 -14 0 -12 10 -11 40 6 24 14 14 18
-22 8z"/>
<path d="M6401 6174 c-29 -37 -26 -61 10 -80 30 -15 33 -15 58 4 32 23 38 57
15 83 -24 27 -59 24 -83 -7z m59 -34 c0 -5 -7 -10 -15 -10 -8 0 -15 5 -15 10
0 6 7 10 15 10 8 0 15 -4 15 -10z"/>
<path d="M6573 6175 c-10 -13 -33 -44 -51 -69 -22 -30 -46 -49 -70 -57 -52
-16 -64 -27 -52 -48 6 -13 3 -30 -12 -59 -18 -38 -20 -57 -17 -200 4 -177 7
-185 71 -204 73 -22 121 -131 50 -113 -15 3 -37 7 -49 7 -21 0 -21 1 -6 24 14
22 14 24 -2 31 -12 4 -23 0 -31 -12 -17 -24 -18 -61 -1 -68 25 -9 445 -8 451
2 9 15 -7 21 -60 22 -63 2 -65 4 -52 39 12 37 53 70 84 70 47 0 54 30 54 215
-1 136 -4 174 -16 190 -10 14 -13 31 -9 57 6 36 6 36 -34 43 -43 7 -104 63
-135 124 -14 27 -22 31 -56 31 -29 0 -43 -6 -57 -25z m153 -137 c10 -9 31 -21
47 -27 21 -8 27 -17 27 -40 0 -19 11 -43 30 -64 29 -33 30 -38 30 -128 0 -149
-5 -164 -60 -198 -25 -16 -57 -43 -71 -61 -87 -115 -105 -117 -182 -16 -16 21
-51 51 -79 68 -27 17 -54 42 -59 55 -5 13 -9 76 -9 140 0 108 1 117 25 145 14
17 25 42 25 59 0 23 7 32 40 49 23 12 57 44 82 78 24 31 47 60 52 64 5 3 26
-19 46 -50 20 -32 46 -65 56 -74z"/>
<path d="M6783 6188 c-34 -16 -39 -46 -12 -74 31 -33 56 -39 84 -20 30 20 32
45 4 80 -22 28 -40 31 -76 14z m57 -48 c0 -5 -6 -10 -14 -10 -8 0 -18 5 -21
10 -3 6 3 10 14 10 12 0 21 -4 21 -10z"/>
<path d="M6147 6140 c-13 -33 -22 -38 -31 -15 -8 23 -34 18 -52 -9 -20 -31
-15 -70 10 -74 16 -3 18 0 12 22 -7 29 -1 33 20 12 18 -18 10 -40 -22 -61 -22
-14 -24 -21 -19 -59 5 -28 3 -46 -4 -50 -7 -5 -11 -59 -11 -157 l0 -149 34
-37 c18 -21 36 -48 40 -59 6 -18 3 -21 -18 -17 -15 3 -23 10 -20 18 3 7 1 16
-4 19 -13 8 -26 -44 -13 -57 5 -5 27 -13 48 -17 21 -4 49 -10 64 -14 23 -7 25
-5 26 31 1 29 8 44 32 64 32 27 38 43 20 54 -15 10 -59 -33 -77 -75 l-15 -35
-9 37 c-5 20 -25 54 -44 76 l-34 40 0 114 c0 95 3 120 20 153 12 22 19 48 16
59 -3 10 6 35 20 56 13 20 28 57 33 81 5 24 9 36 10 27 1 -9 12 -30 26 -46 14
-16 29 -40 34 -53 8 -23 9 -23 16 9 5 27 3 38 -14 56 -11 12 -26 36 -32 54
-15 42 -46 43 -62 2z"/>
<path d="M6230 6156 c0 -21 11 -46 20 -46 14 0 21 32 9 46 -15 18 -29 18 -29
0z"/>
<path d="M6241 5474 c0 -11 3 -14 6 -6 3 7 2 16 -1 19 -3 4 -6 -2 -5 -13z"/>
<path d="M7007 6162 c-29 -32 -18 -82 18 -82 24 0 55 28 55 52 0 16 -31 48
-47 48 -5 0 -17 -8 -26 -18z m43 -43 c0 -5 -4 -9 -10 -9 -5 0 -10 7 -10 16 0
8 5 12 10 9 6 -3 10 -10 10 -16z"/>
<path d="M7205 6120 c-9 -14 3 -30 23 -30 12 0 13 -3 5 -11 -14 -14 -6 -39 13
-39 18 0 19 61 2 78 -15 15 -35 16 -43 2z"/>
<path d="M7100 6030 c-19 -17 -28 -30 -20 -30 21 0 35 11 49 38 15 28 13 28
-29 -8z"/>
<path d="M6999 5123 l-24 -28 28 24 c25 23 32 31 24 31 -2 0 -14 -12 -28 -27z"/>
<path d="M6264 5184 c3 -18 10 -24 33 -28 12 -3 20 1 20 9 0 8 -4 12 -9 9 -4
-3 -8 -1 -8 4 0 5 -9 12 -19 15 -12 3 -18 0 -17 -9z"/>
<path d="M6350 5160 c0 -6 4 -10 9 -10 5 0 12 -8 14 -17 4 -14 5 -13 6 3 0 12
-6 24 -14 28 -8 3 -15 1 -15 -4z"/>
<path d="M2572 3988 c-7 -7 -12 -15 -12 -20 0 -4 -21 -41 -46 -83 -44 -73 -45
-77 -30 -100 9 -14 29 -31 45 -40 27 -13 31 -13 62 8 24 16 35 32 37 52 1 17
10 63 19 103 14 67 13 95 -3 79 -11 -10 -44 -140 -44 -169 0 -23 -4 -28 -26
-28 -14 0 -34 5 -45 10 -18 10 -16 15 26 94 25 45 45 88 45 94 0 15 -13 15
-28 0z"/>
<path d="M2792 3973 c-5 -10 -12 -42 -16 -72 -4 -30 -14 -70 -22 -89 -17 -41
-14 -47 36 -72 50 -26 63 -25 97 4 27 23 27 26 15 58 -8 18 -18 51 -23 73 -23
93 -30 115 -40 115 -14 0 -4 -86 17 -152 9 -26 13 -52 9 -58 -6 -10 -68 -14
-77 -4 -3 3 0 24 7 47 7 23 15 70 18 105 5 61 -3 79 -21 45z"/>
<path d="M1305 3704 l-29 -17 52 -13 c98 -25 169 -89 215 -195 44 -98 51 -156
41 -354 -15 -300 -11 -411 15 -477 34 -87 81 -142 153 -177 70 -35 167 -55
201 -42 24 10 65 51 92 94 l17 27 -74 0 c-43 0 -95 7 -124 17 -68 23 -144 101
-174 178 -23 57 -24 71 -25 330 -1 243 -3 277 -22 336 -11 36 -28 81 -38 100
-75 149 -216 239 -300 193z"/>
<path d="M2743 3014 c-35 -27 -44 -64 -17 -64 23 0 84 39 84 54 0 12 -20 36
-29 36 -4 0 -21 -12 -38 -26z"/>
<path d="M2910 3014 c0 -20 39 -53 63 -54 26 0 32 28 12 50 -22 25 -75 27 -75
4z"/>
<path d="M2827 2953 c-14 -52 -16 -73 -8 -73 6 0 15 9 22 21 l11 21 22 -21
c49 -46 64 -12 17 38 -32 35 -57 40 -64 14z"/>
<path d="M2838 2718 c-8 -7 -29 -34 -47 -60 -17 -26 -52 -64 -76 -85 -25 -20
-45 -42 -45 -49 0 -6 24 -30 53 -53 29 -22 68 -59 85 -81 54 -66 66 -68 110
-18 20 23 61 68 90 99 28 31 52 64 52 75 0 12 -16 27 -45 43 -25 13 -61 44
-82 70 -37 47 -62 71 -73 71 -3 0 -13 -6 -22 -12z m126 -146 l46 -33 -67 -75
c-36 -41 -68 -74 -71 -74 -2 0 -36 32 -75 70 l-70 71 30 27 c16 15 47 49 67
75 l38 48 28 -38 c16 -21 49 -53 74 -71z"/>
<path d="M2824 2543 c-5 -20 -2 -30 14 -43 42 -34 93 -1 77 50 -5 16 -15 20
-45 20 -35 0 -40 -3 -46 -27z m56 -8 c0 -8 -4 -15 -10 -15 -5 0 -10 7 -10 15
0 8 5 15 10 15 6 0 10 -7 10 -15z"/>
<path d="M3155 2908 c-29 -16 -35 -28 -35 -74 0 -26 6 -46 18 -57 65 -58 156
-1 132 83 -16 54 -67 75 -115 48z m70 -68 c0 -31 -3 -35 -27 -38 -19 -2 -30 3
-38 17 -16 32 4 63 38 59 24 -3 27 -7 27 -38z"/>
<path d="M2482 2890 c-12 -5 -30 -26 -39 -45 -16 -33 -16 -39 -3 -63 9 -14 30
-35 48 -45 27 -16 37 -17 61 -7 56 23 67 95 22 141 -30 30 -50 34 -89 19z m75
-66 c8 -20 -31 -59 -51 -51 -8 3 -20 15 -26 26 -8 17 -7 24 10 41 17 17 24 18
41 10 11 -6 23 -18 26 -26z"/>
<path d="M3586 2437 c3 -10 9 -15 12 -12 3 3 0 11 -7 18 -10 9 -11 8 -5 -6z"/>
<path d="M3582 2401 c-11 -7 -11 -9 2 -14 10 -4 16 -1 16 8 0 17 -1 17 -18 6z"/>
<path d="M3618 2383 c7 -3 16 -2 19 1 4 3 -2 6 -13 5 -11 0 -14 -3 -6 -6z"/>
<path d="M6165 2280 c3 -5 8 -10 11 -10 2 0 4 5 4 10 0 6 -5 10 -11 10 -5 0
-7 -4 -4 -10z"/>
<path d="M4217 2568 c7 -8 47 -23 88 -33 109 -25 359 -18 428 13 26 11 47 23
47 25 0 3 -21 -2 -47 -10 -106 -32 -438 -26 -508 10 -17 9 -18 8 -8 -5z"/>
<path d="M4230 2465 c0 -14 2 -25 4 -25 2 0 6 11 8 25 3 14 1 25 -3 25 -5 0
-9 -11 -9 -25z"/>
<path d="M7535 2100 c-3 -5 1 -10 9 -10 9 0 16 5 16 10 0 6 -4 10 -9 10 -6 0
-13 -4 -16 -10z"/>
<path d="M8373 2119 c-7 -7 -13 -22 -13 -33 0 -19 1 -19 16 -4 9 8 14 23 12
32 -2 14 -5 15 -15 5z"/>
<path d="M6000 2031 c0 -5 19 -11 43 -15 23 -4 52 -14 65 -22 25 -16 28 -8 8
19 -10 13 -21 16 -39 12 -14 -4 -28 -2 -31 4 -8 13 -46 15 -46 2z"/>
<path d="M8085 1998 c-19 -15 -39 -21 -59 -19 -30 2 -30 2 -11 -13 32 -24 61
-19 85 15 28 38 21 46 -15 17z"/>
<path d="M6244 1965 c-18 -14 -18 -14 7 -15 14 0 34 7 45 15 18 14 18 14 -7
15 -14 0 -34 -7 -45 -15z"/>
<path d="M6330 1953 c1 -12 74 -43 101 -43 25 0 78 34 68 44 -3 3 -25 -2 -48
-11 -40 -15 -44 -15 -71 0 -30 18 -50 22 -50 10z"/>
<path d="M7842 1938 c-21 -21 -23 -21 -57 -5 -40 19 -47 6 -10 -19 17 -11 34
-14 52 -9 35 8 73 32 73 45 0 18 -35 10 -58 -12z"/>
<path d="M6530 1943 c0 -10 52 -63 62 -63 17 0 7 16 -27 43 -19 15 -35 25 -35
20z"/>
<path d="M6622 1927 c2 -10 15 -26 30 -35 25 -15 30 -15 65 3 24 12 32 20 22
22 -8 2 -28 -3 -44 -11 -28 -15 -31 -14 -53 12 -17 20 -22 23 -20 9z"/>
<path d="M7575 1910 c-30 -24 -34 -30 -18 -30 20 0 71 46 61 55 -3 3 -22 -8
-43 -25z"/>
<path d="M7490 1905 c-34 -25 -34 -25 -55 -5 -12 11 -28 20 -36 20 -18 -1 46
-60 65 -60 16 0 66 45 66 60 0 13 1 13 -40 -15z"/>
<path d="M7660 1920 c0 -13 34 -30 62 -30 l23 1 -24 19 c-24 21 -61 27 -61 10z"/>
<path d="M6930 1911 c0 -18 53 -51 82 -51 32 0 68 16 68 29 0 11 -39 2 -57
-12 -9 -6 -22 -1 -44 17 -32 27 -49 33 -49 17z"/>
<path d="M6847 1903 c-14 -13 -6 -19 26 -21 30 -2 31 -1 13 13 -22 17 -29 18
-39 8z"/>
<path d="M7280 1902 c0 -15 65 -45 85 -40 15 3 9 9 -27 26 -52 24 -58 26 -58
14z"/>
<path d="M7195 1880 c3 -5 17 -10 31 -10 13 0 24 5 24 10 0 6 -14 10 -31 10
-17 0 -28 -4 -24 -10z"/>
<path d="M7990 4400 c6 -11 13 -20 16 -20 2 0 0 9 -6 20 -6 11 -13 20 -16 20
-2 0 0 -9 6 -20z"/>
<path d="M8031 4329 c11 -22 24 -37 29 -34 5 3 7 0 5 -7 -3 -8 2 -22 11 -33 8
-11 13 -15 10 -10 -2 6 0 17 5 25 7 11 8 7 5 -14 -3 -16 1 -41 9 -55 12 -24
18 -26 54 -23 23 2 41 6 41 8 0 3 -11 21 -24 42 -13 20 -35 61 -50 89 -18 37
-30 51 -41 47 -8 -4 -12 -10 -9 -15 3 -5 9 -7 13 -5 4 3 18 -13 30 -34 24 -44
11 -55 -25 -22 -10 10 -27 21 -36 25 -11 4 -17 15 -15 28 1 14 -4 23 -15 24
-16 3 -16 0 3 -36z"/>
<path d="M8141 4138 c5 -10 11 -18 12 -18 2 0 3 8 3 18 0 10 -6 19 -13 19 -8
0 -9 -6 -2 -19z"/>
<path d="M8339 3795 c5 -11 17 -29 26 -40 l16 -20 -10 20 c-5 11 -17 29 -26
40 l-16 20 10 -20z"/>
</g>
</svg>
